<?xml version="1.0" standalone="no"?>
<!DOCTYPE svg PUBLIC "-//W3C//DTD SVG 20010904//EN"
 "http://www.w3.org/TR/2001/REC-SVG-20010904/DTD/svg10.dtd">
<svg version="1.0" xmlns="http://www.w3.org/2000/svg"
 width="200.000000pt" height="193.000000pt" viewBox="0 0 200.000000 193.000000"
 preserveAspectRatio="xMidYMid meet">
<metadata>
Created by potrace 1.16, written by Peter Selinger 2001-2019
</metadata>
<g transform="translate(0.000000,193.000000) scale(0.100000,-0.100000)"
fill="#000000" stroke="none">
<path d="M960 1811 c0 -21 29 -69 50 -84 18 -13 12 -15 -67 -20 l-88 -6 -47
47 c-26 25 -51 43 -54 39 -13 -12 15 -57 47 -76 l31 -19 -56 -13 -56 -12 -48
34 c-39 28 -56 34 -97 34 -49 0 -135 -29 -135 -46 0 -4 14 -18 31 -30 41 -29
104 -35 153 -15 21 9 49 16 63 16 18 0 6 -10 -44 -36 -37 -21 -84 -46 -103
-56 -40 -22 -101 -19 -129 6 -10 9 -21 16 -24 16 -15 0 -6 -31 14 -51 17 -17
29 -20 57 -15 l36 5 -42 -41 c-38 -38 -47 -42 -108 -49 -41 -4 -76 -14 -93
-26 -25 -19 -91 -109 -91 -125 0 -23 105 11 160 51 l35 25 -26 -44 c-31 -53
-69 -153 -69 -180 0 -43 27 -17 45 43 l19 62 8 -38 c10 -46 25 -77 38 -77 16
0 12 35 -9 89 l-20 49 26 51 c14 27 45 72 69 98 l42 48 -11 -42 c-9 -35 -8
-52 7 -98 9 -30 22 -55 29 -55 57 1 76 108 32 174 -14 20 -25 41 -25 46 0 12
113 92 175 123 46 23 146 57 167 57 20 0 -4 -19 -31 -25 -36 -8 -74 -48 -100
-105 -28 -61 -26 -70 9 -70 43 0 104 58 121 115 7 25 24 56 37 70 21 23 29 25
117 25 52 0 95 -2 95 -5 0 -3 -18 -16 -40 -30 -39 -25 -70 -68 -57 -81 12 -12
43 7 66 42 14 19 37 42 52 49 24 13 34 12 90 -6 60 -20 139 -55 139 -63 0 -2
-21 -1 -47 1 -42 4 -53 1 -90 -28 -24 -18 -43 -39 -43 -46 0 -15 61 -27 97
-18 14 3 41 22 58 41 17 19 39 34 47 34 23 0 146 -102 193 -160 24 -29 44 -45
49 -40 10 10 -20 54 -84 120 -22 23 -50 61 -62 84 -25 50 -54 83 -90 102 -43
22 -34 -1 25 -63 l52 -56 -55 35 c-66 41 -130 69 -226 97 -60 18 -74 26 -84
50 -6 16 -22 39 -34 50 -27 25 -96 41 -96 22z"/>
<path d="M600 1045 c0 -11 5 -15 15 -11 13 4 15 -9 15 -90 0 -75 -3 -96 -15
-100 -30 -12 -14 -24 30 -24 25 0 45 5 45 10 0 6 -7 10 -15 10 -11 0 -15 11
-15 40 0 22 4 40 9 40 5 0 25 -22 45 -50 27 -37 42 -50 61 -50 14 0 25 5 25
10 0 6 -4 10 -10 10 -5 0 -22 19 -38 43 l-30 42 24 18 c17 13 24 28 24 52 0
43 -22 56 -107 63 -55 4 -63 3 -63 -13z"/>
<path d="M1103 990 c-13 -5 -23 -18 -23 -29 0 -28 20 -37 27 -13 10 38 47 36
54 -3 4 -16 -5 -23 -41 -35 -42 -14 -45 -17 -45 -50 l0 -35 73 -2 c39 -1 72 3
72 8 0 5 -4 9 -10 9 -6 0 -10 28 -10 64 0 56 -3 67 -22 80 -25 18 -42 19 -75
6z"/>
<path d="M1317 994 c-4 -5 -25 -7 -47 -6 -31 2 -40 -1 -40 -14 0 -11 5 -14 16
-10 14 5 15 -2 12 -51 -2 -32 -8 -66 -12 -75 -7 -15 -3 -18 28 -18 20 0 36 5
36 10 0 6 -4 10 -10 10 -6 0 -10 27 -10 60 0 56 2 60 26 66 17 4 29 2 35 -7
12 -19 11 -119 -1 -119 -5 0 -10 -4 -10 -10 0 -5 18 -10 40 -10 22 0 40 5 40
10 0 6 -4 10 -9 10 -5 0 -11 29 -13 65 -2 36 -8 69 -13 74 -14 14 -59 23 -68
15z"/>
<path d="M1665 733 l-19 -58 -8 42 c-9 41 -32 72 -46 59 -3 -4 3 -34 15 -67
12 -33 19 -68 16 -77 -9 -25 -76 -121 -113 -162 l-31 -35 16 32 c8 18 15 47
15 65 0 37 -34 118 -49 118 -5 0 -19 -12 -30 -26 -32 -40 -29 -113 6 -154 33
-40 28 -49 -53 -107 -63 -45 -174 -96 -243 -112 -35 -8 -40 -7 -30 5 6 8 18
14 26 14 38 0 75 33 104 93 34 73 36 87 9 87 -56 0 -109 -51 -135 -129 -9 -27
-25 -57 -36 -67 -23 -21 -114 -30 -174 -16 l-40 8 41 21 c22 12 45 33 52 48
29 64 5 60 -63 -10 -29 -30 -59 -55 -66 -55 -44 0 -212 68 -203 81 3 5 13 5
24 -1 32 -17 55 -11 104 25 64 50 61 65 -14 65 -56 0 -61 -2 -87 -35 -19 -24
-36 -35 -53 -35 -32 1 -139 86 -188 150 -34 45 -62 63 -62 41 0 -11 34 -54 95
-121 23 -25 51 -67 64 -93 22 -46 93 -108 108 -94 8 9 -42 74 -73 94 -14 8
-22 18 -20 20 3 3 18 -4 35 -16 48 -35 157 -82 229 -100 60 -15 70 -22 95 -59
31 -47 57 -66 100 -76 31 -7 33 0 12 50 -9 22 -26 40 -47 49 -31 14 -28 14 72
15 l106 0 39 -40 c21 -22 43 -40 47 -40 19 0 5 35 -26 65 l-34 31 45 12 c47
13 54 11 120 -34 25 -17 49 -24 82 -24 47 0 131 31 131 49 0 15 -65 51 -102
57 -21 4 -52 -2 -87 -16 -33 -13 -58 -17 -63 -12 -6 6 2 14 21 20 16 6 54 26
84 45 74 48 108 54 158 28 47 -25 49 -25 49 -7 0 27 -30 46 -73 46 l-41 0 30
31 c36 39 81 59 131 59 57 0 101 29 141 93 19 31 32 60 28 64 -9 9 -103 -24
-146 -52 l-35 -22 36 74 c21 41 41 92 47 114 9 34 8 39 -7 39 -12 0 -23 -17
-36 -57z"/>
</g>
</svg>
