<?xml version="1.0" encoding="UTF-8"?>
<!DOCTYPE svg PUBLIC "-//W3C//DTD SVG 1.0//EN" "http://www.w3.org/TR/2001/REC-SVG-20010904/DTD/svg10.dtd">
<!-- Creator: CorelDRAW 2018 (64-Bit) -->
<svg xmlns="http://www.w3.org/2000/svg" xml:space="preserve" width="50mm" height="48.781mm" version="1.0" style="shape-rendering:geometricPrecision; text-rendering:geometricPrecision; image-rendering:optimizeQuality; fill-rule:evenodd; clip-rule:evenodd"
viewBox="0 0 50 48.781"
 xmlns:xlink="http://www.w3.org/1999/xlink">
 <defs>
  <style type="text/css">
   <![CDATA[
    .fil0 {fill:#2B2A29}
   ]]>
  </style>
 </defs>
 <g id="Layer_x0020_1">
  <metadata id="CorelCorpID_0Corel-Layer"/>
  <g id="_1944200649536">
   <path class="fil0" d="M13.1157 27.3925c-0.0335,-2.5087 -0.0902,-5.0248 -0.2463,-7.6168 -0.0454,-0.7535 1.3837,-1.3011 2.0506,-0.2049 0.2786,0.4574 0.1372,2.0018 0.4757,1.5889 0.9378,-1.1441 2.6681,-3.1379 4.1854,-1.1788 0.91,1.1749 -0.2269,2.8673 -0.0151,2.8192 1.5515,-0.3522 1.3913,0.8416 1.4283,3.1966 0.0063,0.4118 0.9741,-0.5497 0.9741,-2.3398 0,-0.3712 0.6588,-0.5959 1.0506,-0.3334 0.6946,0.4652 0.4615,2.2148 0.4398,3.0271 -0.0214,0.8061 0.3222,0.2196 0.5675,-0.1051 0.9147,-1.2112 0.4687,-1.9042 0.1689,-2.8859 -0.2558,-0.8374 1.0968,-1.2543 1.4699,-0.8467 1.0441,1.1407 1.2644,3.1991 1.2644,3.1991 1.1812,-1.1569 1.2628,-2.8082 3.5027,-2.611 0.1239,0.0108 0.2894,0.0014 0.2919,-0.1201 0.0092,-0.4479 1.2899,-0.3173 1.3942,0.9884 0.1526,1.9113 -1.1999,3.5573 -0.5842,3.3969 0.7541,-0.1965 1.5054,-2.0344 1.5128,-2.8004 0.0083,-0.8746 0.1583,-1.8661 0.556,-1.8169 0.7087,0.0877 1.0943,0.24 1.4115,0.961 0.037,0.0843 0.1968,0.1182 0.2693,0.0641 0.4497,-0.3362 1.3031,-0.3884 1.8637,0.324 0.8049,1.023 -0.601,2.2329 -0.0439,2.9825 0.4152,0.5587 1.317,-1.5202 1.4225,-1.8056 0.1258,-0.3406 0.3216,-0.0434 0.2383,0.292 -0.3589,1.4466 -1.7876,3.2666 -3.2116,1.724 -0.9459,-1.0249 0.1431,-2.3548 0.1668,-2.8376 0.0223,-0.4515 -0.407,-0.5099 -0.5934,-0.022 -0.6608,1.7212 0.0483,3.6499 -0.6826,3.5463 -0.9506,-0.1347 -1.5063,-0.1367 -1.4904,-1.3768 0.0081,-0.6261 -0.5456,1.1569 -1.5066,1.3676 -0.8658,0.1899 -1.2881,-0.5692 -1.3015,-1.0923 -0.0053,-0.2048 -0.15,-0.2768 -0.4005,0.0447 -0.614,0.7882 -2.3434,0.9964 -2.2606,-1.0158 0.0031,-0.0753 -0.474,0.3678 -0.4296,0.7978 0.1424,1.3797 -0.1243,2.8013 -0.7894,3.8893 -1.2515,2.0473 -2.9376,0.1739 -1.5157,-1.7431 0.3895,-0.525 0.5408,-1.4587 0.2436,-2.9476 -0.077,-0.3862 -0.2493,0.019 -0.6922,0.6665 -0.2654,0.3877 -0.7835,1.1172 -1.3457,1.1405 -1.3291,0.0553 -0.8234,-1.7435 -1.0892,-1.384 -0.5334,0.7212 -1.147,1.086 -1.5818,1.0729 -0.1855,-0.0055 -0.7216,0.0239 -0.7359,-0.7771 -0.0192,-1.0764 0.166,-3.4394 -0.4503,-2.9871 -1.3636,1.0007 -1.5161,0.8305 -3.1142,1.103 -0.2564,0.0438 -0.4133,0.1155 -0.2823,0.2939 0.9235,1.2556 5.1524,5.3504 7.1112,4.3702 0.4416,-0.2211 0.2152,-0.8592 0.6553,-0.7561 0.4421,0.1037 0.9147,1.7143 -0.6608,1.8369 -2.5979,0.2023 -6.2126,-3.2774 -7.7354,-5.321 -0.2035,-0.2733 -0.2542,1.018 -0.3954,1.2028 -0.139,0.1816 -0.4011,0.2676 -0.4999,0.4741 -0.1172,0.2448 -0.0852,0.4148 -0.1593,0.6759 -0.0298,0.1053 -0.1908,0.1596 -0.1922,0.2691 -0.0042,0.3205 -0.0313,0.7637 -0.3782,1.1188 -0.3978,0.4072 -0.3299,-1.4421 -0.3308,-1.5082zm11.9711 -6.9175c0.5418,0 0.9811,0.2369 0.9811,0.5291 0,0.2923 -0.3186,0.6173 -0.8494,0.5292 -0.5309,-0.0882 -1.0384,-0.3059 -1.1129,-0.5292 -0.0744,-0.2233 0.4393,-0.5291 0.9812,-0.5291zm-0.3307 9.476c-0.2773,0.6274 0.1561,1.2508 0.3526,0.8917 0.3041,-0.5553 -0.055,-1.5649 -0.3526,-0.8917zm-9.7189 -5.7006c-0.0267,-0.8796 0.166,-1.7879 0.6161,-2.4868 0.6563,-1.0195 2.1037,-2.3421 2.2333,-1.9683 0.5972,1.7225 -2.8241,5.2917 -2.8494,4.4551zm14.8322 -0.4609c1.1434,0.5673 -0.6326,3.4861 -1.376,3.221 -0.8533,-0.3046 0.6238,-3.5942 1.376,-3.221z"/>
   <path class="fil0" d="M48.7766 14.7441c-0.3106,-0.1541 -5.3826,0.2293 -6.2202,0.4484 -3.8415,1.0054 -2.7853,6.0143 0.8668,4.7885 1.1415,-0.3831 5.3675,-4.442 5.3534,-5.2369zm-41.2234 27.7499c1.9365,-0.1814 4.429,-0.7826 6.6775,-1.869 1.6045,-1.2968 1.5656,-2.9163 -0.2315,-3.9541 -2.9618,-1.7106 -4.7088,2.9042 -5.8609,4.716 -0.362,0.5692 -0.5649,0.7546 -0.5851,1.1071zm-6.0154 -9.9426c1.7182,0.8394 11.3574,3.0727 9.2916,-1.8921 -1.5519,-3.7297 -6.6973,0.5708 -9.2916,1.8921zm-1.5378 -11.6642c0.1197,1.2246 4.7714,4.289 6.368,4.4533 2.7296,0.2809 2.6362,-2.4619 2.2316,-3.3574 -1.0191,-2.2553 -6.3545,-1.1983 -8.5996,-1.0959zm10.8097 -16.9952c-0.2609,0.5197 0.2109,5.7253 0.3364,6.2127 1.1343,4.407 7.802,1.0399 3.4179,-3.1162 -0.3784,-0.3587 -3.6052,-3.0742 -3.7543,-3.0965zm-6.5965 7.0496c-0.2993,0.4541 1.6925,4.1978 2.0721,4.7526 3.3615,4.9123 7.8892,-0.4965 3.0649,-3.0679 -0.1815,-0.0967 -5.1335,-1.6861 -5.137,-1.6847zm16.8738 -10.9416c-1.0137,0.7402 -2.7345,5.8871 -2.3126,7.7447 0.4005,1.7632 3.7444,1.2478 4.4873,-0.0282 1.0026,-1.7223 -1.4149,-5.9817 -2.1747,-7.7165zm-1.4824 48.781l2.6074 -4.4053c2.5435,-4.0634 -2.1299,-5.7944 -3.6422,-3.7856 -0.9819,1.3041 0.2657,7.5487 1.0348,8.1909zm30.3954 -23.287c-1.5195,-0.5295 -3.7138,-1.6016 -5.0551,-1.951 -1.8761,-0.489 -4.3133,-0.1289 -4.291,2.2475 0.0247,2.6311 2.5401,2.4373 4.4393,1.8453 0.9108,-0.2839 4.5904,-1.534 4.9068,-2.1418zm-17.6934 -25.0331c-0.7838,0.0931 -2.9867,2.4466 -3.8568,3.119 -5.1653,3.9914 1.4885,7.5511 3.1434,3.2674 0.2129,-0.5512 0.7229,-5.7168 0.7134,-6.3864zm-0.9082 48.2909c-0.0762,-2.4047 0.5678,-4.4365 0.2579,-6.1141 -0.6759,-3.6601 -5.5979,-2.9333 -4.9488,0.44 0.2523,1.3112 3.3283,5.1932 4.6909,5.6741zm9.8898 -4.9835c0.0002,-0.0639 -1.7874,-4.8658 -1.9867,-5.2876 -0.87,-1.8409 -2.9515,-2.806 -4.5946,-1.2873 -1.9071,1.7624 -0.031,3.4108 1.5877,4.2944 0.5987,0.3268 4.6614,2.3151 4.9936,2.2805zm6.3193 -7.8293c-0.0084,-0.4811 -0.6569,-0.7879 -1.5931,-1.8296 -1.1311,-1.2588 -3.8788,-5.017 -6.4267,-2.6652 -0.9962,0.9196 -1.5196,3.3024 1.5228,4.0647 0.939,0.2353 5.4706,0.5122 6.497,0.4301zm-5.9969 -29.7653c-0.2727,-0.0136 -4.2445,2.1481 -4.7203,2.4857 -4.8326,3.4295 0.8504,8.0077 3.1828,3.1808 0.3032,-0.6274 1.5564,-5.1013 1.5375,-5.6665z"/>
  </g>
 </g>
</svg>
